# xmcd
# Copyright (C) 1995-1998 Ti Kan
#
# Track frame offsets:
#       150
#       21159
#       38976
#       57499
#       79334
#       98146
#       116462
#       134679
#       153215
#       170210
#       187303
#       216888
#
# Disc length: 4244 seconds
#
# Revision: 0
# Processed by: cddbd v1.5.2PL0 Copyright (c) Steve Scherf et al.
# Submitted via: CD-Transfer v1.0
#
DISCID=b110920c
DTITLE=Zakon Neba - I. Foretiæ
DYEAR=10
DGENRE=
TTITLE0=Protiv Struje
TTITLE1=Zadnja Rijeè
TTITLE2=Novi Svijet
TTITLE3=Tajne Mog Postojanja
TTITLE4=Svijet Danas
TTITLE5=Tebi Vjerujem
TTITLE6=Susret
TTITLE7=Probudi Se
TTITLE8=Pusti Sve
TTITLE9=Veza Ljubavi
TTITLE10=Nebo Moje
TTITLE11=Data Track
EXTD=
EXTT0=
EXTT1=
EXTT2=
EXTT3=
EXTT4=
EXTT5=
EXTT6=
EXTT7=
EXTT8=
EXTT9=
EXTT10=
EXTT11=
PLAYORDER=
